# xmcd
#
# Track frame offsets: 
#        150
#        13977
#        25436
#        35693
#        47640
#        65074
#        77431
#        95417
#        115834
#        124731
#        142529
#        155381
#        170839
#        185128
#
# Disc length: 2687 seconds
#
# Revision: 0
# Processed by: cddbd v1.5.2PL0 Copyright (c) Steve Scherf et al.
# Submitted via: ExactAudioCopyFreeDBPlugin 1.0
#
DISCID=bd0a7d0e
DTITLE=Corey Harris - Fulton Blues
DYEAR=2013
DGENRE=Blues
TTITLE0=Crying Blues
TTITLE1=Underground
TTITLE2=J.Gilly Blues
TTITLE3=Black Woman Gates
TTITLE4=Tallahatchie
TTITLE5=Fulton Blues
TTITLE6=Devil Got My Woman
TTITLE7=House Negro Blues
TTITLE8=Black Rag
TTITLE9=Catfish Blues
TTITLE10=That Will Never Happen No More
TTITLE11=Lynch Blues
TTITLE12=Maggie Walker Blues
TTITLE13=Fat Duck's Groove
EXTD=
EXTT0=
EXTT1=
EXTT2=
EXTT3=
EXTT4=
EXTT5=
EXTT6=
EXTT7=
EXTT8=
EXTT9=
EXTT10=
EXTT11=
EXTT12=
EXTT13=
PLAYORDER=
